<?xml version="1.0" encoding="UTF-8" standalone="no"?>
<svg width="318px" height="79px" viewBox="0 0 318 79" version="1.1" xmlns="http://www.w3.org/2000/svg" xmlns:xlink="http://www.w3.org/1999/xlink" xmlns:sketch="http://www.bohemiancoding.com/sketch/ns">
    <!-- Generator: Sketch 3.4.2 (15855) - http://www.bohemiancoding.com/sketch -->
    <title>Group</title>
    <desc>Created with Sketch.</desc>
    <defs></defs>
    <g id="Page-1" stroke="none" stroke-width="1" fill="none" fill-rule="evenodd" sketch:type="MSPage">
        <g id="Desktop-HD" sketch:type="MSArtboardGroup" transform="translate(-561.000000, -40.000000)">
            <g id="w-+-engineering" sketch:type="MSLayerGroup" transform="translate(371.000000, 37.000000)">
                <g transform="translate(190.000000, 0.000000)" id="w-+-engineering-+-Triangle-1-+-We’re-hiring!" sketch:type="MSShapeGroup">
                    <g>
                        <g id="w-+-engineering" transform="translate(0.000000, 3.000000)">
                            <g id="Group">
                                <path d="M95.1433594,62.6550781 L102.477344,62.6550781 L102.477344,69.9890625 L95.1433594,69.9890625 L95.1433594,62.6550781 Z M10.9492188,51.5074219 L13.5894531,51.5074219 L13.5894531,56.7878906 L10.9492188,56.7878906 L10.9492188,62.6550781 C10.9492188,63.8285215 11.4381462,64.4152344 12.4160156,64.4152344 L13.5894531,64.4152344 L13.5894531,69.9890625 L7.72226563,69.9890625 C4.78865721,69.9890625 3.321875,68.5222803 3.321875,65.5886719 L3.321875,56.7878906 L0.975,56.7878906 L0.975,51.5074219 L3.321875,51.5074219 L3.321875,43 L10.9492188,43 L10.9492188,51.5074219 Z M38.525,56.7878906 L38.525,64.7085938 L40.5785156,64.7085938 L40.5785156,70.2824219 L31.1910156,70.2824219 L31.1910156,67.3488281 C29.0397028,69.6957149 26.8884222,70.8691406 24.7371094,70.8691406 C21.9990749,70.8691406 19.8477943,69.8912858 18.2832031,67.9355469 C16.718612,65.9798079 15.9363281,63.6329564 15.9363281,60.8949219 C15.9363281,54.2454095 18.967678,50.9207031 25.0304688,50.9207031 C27.5729294,50.9207031 29.7242099,52.0941289 31.484375,54.4410156 L31.484375,51.5074219 L40.5785156,51.5074219 L40.5785156,57.08125 L38.525,56.7878906 Z M31.1910156,60.8949219 C31.1910156,58.5480351 30.0175899,57.3746094 27.6707031,57.3746094 C25.3238164,57.3746094 24.1503906,58.5480351 24.1503906,60.8949219 C24.1503906,63.2418086 25.3238164,64.4152344 27.6707031,64.4152344 C30.0175899,64.4152344 31.1910156,63.2418086 31.1910156,60.8949219 L31.1910156,60.8949219 Z M52.8996094,53.8542969 L53.4863281,53.2675781 C53.8774759,52.8764303 54.5619743,52.3875029 55.5398438,51.8007812 C56.5177132,51.2140596 57.691139,50.9207031 59.0601563,50.9207031 C61.9937647,50.9207031 64.2428307,51.8007724 65.8074219,53.5609375 C67.372013,55.3211026 68.1542969,57.5701686 68.1542969,60.3082031 C68.1542969,63.2418115 67.372013,65.7353413 65.8074219,67.7888672 C64.2428307,69.8423931 61.9937647,70.8691406 59.0601563,70.8691406 C56.7132695,70.8691406 54.7575599,69.8912858 53.1929688,67.9355469 L52.8996094,67.9355469 L52.8996094,72.6292969 L55.5398438,72.6292969 L55.5398438,78.203125 L43.21875,78.203125 L43.21875,72.6292969 L45.2722656,72.6292969 L45.2722656,56.7878906 L43.21875,56.7878906 L43.21875,51.5074219 L52.8996094,51.5074219 L52.8996094,53.8542969 Z M56.4199219,64.4152344 C58.7668086,64.4152344 59.9402344,63.2418086 59.9402344,60.8949219 C59.9402344,58.5480351 58.7668086,57.3746094 56.4199219,57.3746094 C54.0730351,57.3746094 52.8996094,58.5480351 52.8996094,60.8949219 C52.8996094,63.2418086 54.0730351,64.4152344 56.4199219,64.4152344 L56.4199219,64.4152344 Z M92.503125,65.5886719 C90.7429599,69.109002 87.5160391,70.8691406 82.8222656,70.8691406 C74.8037359,70.8691406 70.7945313,67.5444343 70.7945313,60.8949219 C70.7945313,57.7657396 71.8701715,55.3211026 74.0214844,53.5609375 C76.1727972,51.8007724 78.9107907,50.9207031 82.2355469,50.9207031 C89.471781,50.9207031 93.0898438,54.7343369 93.0898438,62.3617188 L78.7152344,62.3617188 C78.7152344,64.7086055 79.9864456,65.8820313 82.5289063,65.8820313 C84.0934974,65.8820313 85.1691377,65.2953184 85.7558594,64.121875 L92.503125,65.5886719 Z M85.4625,59.1347656 C85.4625,56.7878789 84.3868597,55.6144531 82.2355469,55.6144531 C79.6930862,55.6144531 78.421875,56.7878789 78.421875,59.1347656 L85.4625,59.1347656 Z M113.038281,51.5074219 L115.678516,51.5074219 L115.678516,56.7878906 L113.038281,56.7878906 L113.038281,62.6550781 C113.038281,63.8285215 113.527209,64.4152344 114.505078,64.4152344 L115.385156,64.4152344 L115.385156,69.9890625 L109.811328,69.9890625 C106.682146,69.9890625 105.117578,68.5222803 105.117578,65.5886719 L105.117578,56.7878906 L103.064063,56.7878906 L103.064063,51.5074219 L105.117578,51.5074219 L105.117578,43 L113.038281,43 L113.038281,51.5074219 Z M117.438672,51.5074219 L127.999609,51.5074219 L127.999609,56.4945313 L126.532813,56.4945313 L129.466406,62.9484375 L132.986719,56.4945313 L131.519922,56.4945313 L131.519922,51.5074219 L141.200781,51.5074219 L141.200781,56.7878906 L140.027344,56.7878906 L132.986719,69.9890625 L125.652734,69.9890625 L118.612109,56.7878906 L117.438672,56.7878906 L117.438672,51.5074219 Z" id="w" fill="#FFFFFF"></path>
                                <path d="M166.76,67.92 L167.84,67.848 L167.912,69 C165.223986,69.2160011 163.004009,69.324 161.252,69.324 C158.707987,69.2999999 156.944005,68.5260076 155.96,67.002 C154.975995,65.4779924 154.484,63.1440157 154.484,60 C154.484,53.7839689 156.907976,50.676 161.756,50.676 C164.036011,50.676 165.745994,51.3599932 166.886,52.728 C168.026006,54.0960068 168.596,56.2919849 168.596,59.316 L168.596,60.504 L155.816,60.504 C155.816,63.096013 156.223996,65.0219937 157.04,66.282 C157.856004,67.5420063 159.21199,68.172 161.108,68.172 C163.004009,68.172 164.887991,68.0880008 166.76,67.92 L166.76,67.92 Z M155.816,59.352 L167.264,59.352 C167.264,56.6399864 166.826004,54.7080058 165.95,53.556 C165.073996,52.4039942 163.67601,51.828 161.756,51.828 C157.79598,51.828 155.816,54.3359749 155.816,59.352 L155.816,59.352 Z M173.872,69 L172.612,69 L172.612,51 L173.872,51 L173.872,52.44 C176.008011,51.2639941 178.191989,50.676 180.424,50.676 C182.656011,50.676 184.155996,51.2819939 184.924,52.494 C185.692004,53.7060061 186.076,56.0879822 186.076,59.64 L186.076,69 L184.816,69 L184.816,59.712 C184.816,56.5439842 184.528003,54.4380052 183.952,53.394 C183.375997,52.3499948 182.11601,51.828 180.172,51.828 C179.211995,51.828 178.210005,51.9779985 177.166,52.278 C176.121995,52.5780015 175.312003,52.8719986 174.736,53.16 L173.872,53.628 L173.872,69 Z M203.106,76.29 C201.893994,77.1660044 199.890014,77.604 197.094,77.604 C194.297986,77.604 192.438005,77.202004 191.514,76.398 C190.589995,75.593996 190.128,74.088011 190.128,71.88 C190.128,70.5119932 190.583995,69.4200041 191.496,68.604 C191.832002,68.2919984 192.395996,67.8480029 193.188,67.272 C192.659997,66.9359983 192.396,66.1560061 192.396,64.932 C192.396,64.5959983 192.671997,63.8520058 193.224,62.7 L193.476,62.124 C191.41199,61.4519966 190.38,59.6280149 190.38,56.652 C190.38,52.64398 192.431979,50.64 196.536,50.64 C197.784006,50.64 198.887995,50.7599988 199.848,51 L200.352,51.108 L205.392,51 L205.392,52.26 L201.504,52.26 C202.464005,53.1480044 202.944,54.6419895 202.944,56.742 C202.944,58.8420105 202.422005,60.3359956 201.378,61.224 C200.333995,62.1120044 198.672011,62.556 196.392,62.556 C195.671996,62.556 195.024003,62.5080005 194.448,62.412 C193.895997,63.7800068 193.62,64.6439982 193.62,65.004 C193.62,65.3640018 193.644,65.639999 193.692,65.832 C193.74,66.024001 193.835999,66.2039992 193.98,66.372 C194.124001,66.5400008 194.399998,66.6479998 194.808,66.696 C195.552004,66.8160006 196.95599,66.876 199.02,66.876 C201.08401,66.876 202.583995,67.2059967 203.52,67.866 C204.456005,68.5260033 204.924,69.8759898 204.924,71.916 C204.924,73.9560102 204.318006,75.4139956 203.106,76.29 L203.106,76.29 Z M191.424,71.844 C191.424,73.6200089 191.801996,74.8319968 192.558,75.48 C193.314004,76.1280032 194.849988,76.452 197.166,76.452 C199.482012,76.452 201.131995,76.1100034 202.116,75.426 C203.100005,74.7419966 203.592,73.5780082 203.592,71.934 C203.592,70.2899918 203.232004,69.2280024 202.512,68.748 C201.791996,68.2679976 200.44801,68.028 198.48,68.028 L194.124,67.92 C193.043995,68.6640037 192.324002,69.2939974 191.964,69.81 C191.603998,70.3260026 191.424,71.0039958 191.424,71.844 L191.424,71.844 Z M192.792,60.36 C193.536004,61.0560035 194.813991,61.404 196.626,61.404 C198.438009,61.404 199.721996,61.0620034 200.478,60.378 C201.234004,59.6939966 201.612,58.452009 201.612,56.652 C201.612,54.851991 201.234004,53.5920036 200.478,52.872 C199.721996,52.1519964 198.438009,51.792 196.626,51.792 C194.813991,51.792 193.536004,52.1579963 192.792,52.89 C192.047996,53.6220037 191.676,54.8759911 191.676,56.652 C191.676,58.4280089 192.047996,59.6639965 192.792,60.36 L192.792,60.36 Z M208.22,69 L208.22,51 L209.48,51 L209.48,69 L208.22,69 Z M208.22,45.78 L208.22,43.8 L209.48,43.8 L209.48,45.78 L208.22,45.78 Z M215.728,69 L214.468,69 L214.468,51 L215.728,51 L215.728,52.44 C217.864011,51.2639941 220.047989,50.676 222.28,50.676 C224.512011,50.676 226.011996,51.2819939 226.78,52.494 C227.548004,53.7060061 227.932,56.0879822 227.932,59.64 L227.932,69 L226.672,69 L226.672,59.712 C226.672,56.5439842 226.384003,54.4380052 225.808,53.394 C225.231997,52.3499948 223.97201,51.828 222.028,51.828 C221.067995,51.828 220.066005,51.9779985 219.022,52.278 C217.977995,52.5780015 217.168003,52.8719986 216.592,53.16 L215.728,53.628 L215.728,69 Z M244.26,67.92 L245.34,67.848 L245.412,69 C242.723987,69.2160011 240.504009,69.324 238.752,69.324 C236.207987,69.2999999 234.444005,68.5260076 233.46,67.002 C232.475995,65.4779924 231.984,63.1440157 231.984,60 C231.984,53.7839689 234.407976,50.676 239.256,50.676 C241.536011,50.676 243.245994,51.3599932 244.386,52.728 C245.526006,54.0960068 246.096,56.2919849 246.096,59.316 L246.096,60.504 L233.316,60.504 C233.316,63.096013 233.723996,65.0219937 234.54,66.282 C235.356004,67.5420063 236.711991,68.172 238.608,68.172 C240.504009,68.172 242.387991,68.0880008 244.26,67.92 L244.26,67.92 Z M233.316,59.352 L244.764,59.352 C244.764,56.6399864 244.326004,54.7080058 243.45,53.556 C242.573996,52.4039942 241.17601,51.828 239.256,51.828 C235.29598,51.828 233.316,54.3359749 233.316,59.352 L233.316,59.352 Z M261.632,67.92 L262.712,67.848 L262.784,69 C260.095987,69.2160011 257.876009,69.324 256.124,69.324 C253.579987,69.2999999 251.816005,68.5260076 250.832,67.002 C249.847995,65.4779924 249.356,63.1440157 249.356,60 C249.356,53.7839689 251.779976,50.676 256.628,50.676 C258.908011,50.676 260.617994,51.3599932 261.758,52.728 C262.898006,54.0960068 263.468,56.2919849 263.468,59.316 L263.468,60.504 L250.688,60.504 C250.688,63.096013 251.095996,65.0219937 251.912,66.282 C252.728004,67.5420063 254.083991,68.172 255.98,68.172 C257.876009,68.172 259.759991,68.0880008 261.632,67.92 L261.632,67.92 Z M250.688,59.352 L262.136,59.352 C262.136,56.6399864 261.698004,54.7080058 260.822,53.556 C259.945996,52.4039942 258.54801,51.828 256.628,51.828 C252.66798,51.828 250.688,54.3359749 250.688,59.352 L250.688,59.352 Z M267.484,69 L267.484,51 L268.744,51 L268.744,53.808 C269.464004,53.2319971 270.537993,52.6140033 271.966,51.954 C273.394007,51.2939967 274.695994,50.8560011 275.872,50.64 L275.872,51.936 C274.815995,52.1520011 273.694006,52.5119975 272.506,53.016 C271.317994,53.5200025 270.400003,53.975998 269.752,54.384 L268.744,54.996 L268.744,69 L267.484,69 Z M278.592,69 L278.592,51 L279.852,51 L279.852,69 L278.592,69 Z M278.592,45.78 L278.592,43.8 L279.852,43.8 L279.852,45.78 L278.592,45.78 Z M286.1,69 L284.84,69 L284.84,51 L286.1,51 L286.1,52.44 C288.236011,51.2639941 290.419989,50.676 292.652,50.676 C294.884011,50.676 296.383996,51.2819939 297.152,52.494 C297.920004,53.7060061 298.304,56.0879822 298.304,59.64 L298.304,69 L297.044,69 L297.044,59.712 C297.044,56.5439842 296.756003,54.4380052 296.18,53.394 C295.603997,52.3499948 294.34401,51.828 292.4,51.828 C291.439995,51.828 290.438005,51.9779985 289.394,52.278 C288.349995,52.5780015 287.540003,52.8719986 286.964,53.16 L286.1,53.628 L286.1,69 Z M315.334,76.29 C314.121994,77.1660044 312.118014,77.604 309.322,77.604 C306.525986,77.604 304.666005,77.202004 303.742,76.398 C302.817995,75.593996 302.356,74.088011 302.356,71.88 C302.356,70.5119932 302.811995,69.4200041 303.724,68.604 C304.060002,68.2919984 304.623996,67.8480029 305.416,67.272 C304.887997,66.9359983 304.624,66.1560061 304.624,64.932 C304.624,64.5959983 304.899997,63.8520058 305.452,62.7 L305.704,62.124 C303.63999,61.4519966 302.608,59.6280149 302.608,56.652 C302.608,52.64398 304.65998,50.64 308.764,50.64 C310.012006,50.64 311.115995,50.7599988 312.076,51 L312.58,51.108 L317.62,51 L317.62,52.26 L313.732,52.26 C314.692005,53.1480044 315.172,54.6419895 315.172,56.742 C315.172,58.8420105 314.650005,60.3359956 313.606,61.224 C312.561995,62.1120044 310.900011,62.556 308.62,62.556 C307.899996,62.556 307.252003,62.5080005 306.676,62.412 C306.123997,63.7800068 305.848,64.6439982 305.848,65.004 C305.848,65.3640018 305.872,65.639999 305.92,65.832 C305.968,66.024001 306.063999,66.2039992 306.208,66.372 C306.352001,66.5400008 306.627998,66.6479998 307.036,66.696 C307.780004,66.8160006 309.18399,66.876 311.248,66.876 C313.31201,66.876 314.811995,67.2059967 315.748,67.866 C316.684005,68.5260033 317.152,69.8759898 317.152,71.916 C317.152,73.9560102 316.546006,75.4139956 315.334,76.29 L315.334,76.29 Z M303.652,71.844 C303.652,73.6200089 304.029996,74.8319968 304.786,75.48 C305.542004,76.1280032 307.077988,76.452 309.394,76.452 C311.710012,76.452 313.359995,76.1100034 314.344,75.426 C315.328005,74.7419966 315.82,73.5780082 315.82,71.934 C315.82,70.2899918 315.460004,69.2280024 314.74,68.748 C314.019996,68.2679976 312.67601,68.028 310.708,68.028 L306.352,67.92 C305.271995,68.6640037 304.552002,69.2939974 304.192,69.81 C303.831998,70.3260026 303.652,71.0039958 303.652,71.844 L303.652,71.844 Z M305.02,60.36 C305.764004,61.0560035 307.041991,61.404 308.854,61.404 C310.666009,61.404 311.949996,61.0620034 312.706,60.378 C313.462004,59.6939966 313.84,58.452009 313.84,56.652 C313.84,54.851991 313.462004,53.5920036 312.706,52.872 C311.949996,52.1519964 310.666009,51.792 308.854,51.792 C307.041991,51.792 305.764004,52.1579963 305.02,52.89 C304.275996,53.6220037 303.904,54.8759911 303.904,56.652 C303.904,58.4280089 304.275996,59.6639965 305.02,60.36 L305.02,60.36 Z" id="engineering" opacity="0.773903918" fill="#FFFFFF"></path>
                                <path d="M119,19.6590185 L118.851911,19.516011 L114.83205,32.3160388 L127.064286,28 L200.996001,28 C203.203768,28 205,26.2105543 205,24.0031611 L205,3.99683887 C205,1.79412025 203.207349,0 200.996001,0 L123.003999,0 C120.796232,0 119,1.78944571 119,3.99683887 L119,19.6590185 Z" id="Triangle-1" fill-opacity="0.25" fill="#FFFFFF"></path>
                                <path d="M127.824889,9.41 L129.392889,9.41 L128.860889,17.558 L129.140889,17.558 L132.570889,9.55 L134.278889,9.55 L133.900889,17.558 L134.166889,17.558 L137.540889,9.41 L139.094889,9.41 L134.978889,19 L132.584889,19 L132.962889,11.622 L129.882889,19 L127.418889,19 L127.824889,9.41 Z M140.012667,17.586 C140.227334,17.7633342 140.493332,17.852 140.810667,17.852 C141.48267,17.852 142.14533,17.7960006 142.798667,17.684 L143.162667,17.614 L143.008667,18.762 C142.159329,19.0233346 141.300671,19.154 140.432667,19.154 C138.920659,19.154 138.164667,18.3980076 138.164667,16.886 C138.164667,15.56066 138.458664,14.4173381 139.046667,13.456 C139.345335,12.9706642 139.746664,12.5833348 140.250667,12.294 C140.754669,12.0046652 141.328663,11.86 141.972667,11.86 C143.503341,11.86 144.268667,12.4993269 144.268667,13.778 C144.268667,14.636671 143.963003,15.2339983 143.351667,15.57 C142.74033,15.9060017 141.744007,16.074 140.362667,16.074 L139.774667,16.074 C139.718666,16.2793344 139.690667,16.5383318 139.690667,16.851 C139.690667,17.1636682 139.797999,17.4086658 140.012667,17.586 L140.012667,17.586 Z M140.614667,14.926 C141.398671,14.926 141.953998,14.8420008 142.280667,14.674 C142.607335,14.5059992 142.770667,14.2120021 142.770667,13.792 C142.770667,13.325331 142.481336,13.092 141.902667,13.092 C140.931995,13.092 140.283335,13.7033272 139.956667,14.926 L140.614667,14.926 Z M146.250444,12.784 L145.116444,12.784 L146.502444,9.41 L148.014444,9.41 L146.250444,12.784 Z M146.692222,19 L148.302222,12 L149.800222,12 L149.562222,13.022 C149.879557,12.7699987 150.264553,12.5250012 150.717222,12.287 C151.169891,12.0489988 151.564221,11.9020003 151.900222,11.846 L151.466222,13.414 C151.04622,13.5353339 150.444226,13.7826648 149.660222,14.156 L149.296222,14.324 L148.204222,19 L146.692222,19 Z M153.462,17.586 C153.676668,17.7633342 153.942665,17.852 154.26,17.852 C154.932003,17.852 155.594663,17.7960006 156.248,17.684 L156.612,17.614 L156.458,18.762 C155.608662,19.0233346 154.750004,19.154 153.882,19.154 C152.369992,19.154 151.614,18.3980076 151.614,16.886 C151.614,15.56066 151.907997,14.4173381 152.496,13.456 C152.794668,12.9706642 153.195997,12.5833348 153.7,12.294 C154.204002,12.0046652 154.777997,11.86 155.422,11.86 C156.952674,11.86 157.718,12.4993269 157.718,13.778 C157.718,14.636671 157.412336,15.2339983 156.801,15.57 C156.189664,15.9060017 155.19334,16.074 153.812,16.074 L153.224,16.074 C153.168,16.2793344 153.14,16.5383318 153.14,16.851 C153.14,17.1636682 153.247332,17.4086658 153.462,17.586 L153.462,17.586 Z M154.064,14.926 C154.848004,14.926 155.403332,14.8420008 155.73,14.674 C156.056668,14.5059992 156.22,14.2120021 156.22,13.792 C156.22,13.325331 155.93067,13.092 155.352,13.092 C154.381328,13.092 153.732668,13.7033272 153.406,14.926 L154.064,14.926 Z M165.979556,11.846 C166.548892,11.846 166.971221,12.0163316 167.246556,12.357 C167.52189,12.6976684 167.659556,13.1083309 167.659556,13.589 C167.659556,14.0696691 167.561557,14.7159959 167.365556,15.528 L166.567556,19 L165.055556,19 L165.839556,15.626 C166.007556,14.9539966 166.091556,14.4500017 166.091556,14.114 C166.091556,13.7779983 166.037889,13.5353341 165.930556,13.386 C165.823222,13.2366659 165.655223,13.162 165.426556,13.162 C165.197888,13.162 164.941224,13.2576657 164.656556,13.449 C164.371887,13.6403343 164.136223,13.833999 163.949556,14.03 L163.669556,14.324 L162.591556,19 L161.079556,19 L163.361556,9.088 L164.873556,9.088 L164.005556,12.91 C164.080223,12.8259996 164.178222,12.7256673 164.299556,12.609 C164.420889,12.4923328 164.65422,12.336001 164.999556,12.14 C165.344891,11.943999 165.671554,11.846 165.979556,11.846 L165.979556,11.846 Z M168.255333,19 L169.865333,12 L171.377333,12 L169.767333,19 L168.255333,19 Z M170.089333,10.964 L170.467333,9.326 L172.007333,9.326 L171.629333,10.964 L170.089333,10.964 Z M171.511111,19 L173.121111,12 L174.619111,12 L174.381111,13.022 C174.698446,12.7699987 175.083442,12.5250012 175.536111,12.287 C175.98878,12.0489988 176.383109,11.9020003 176.719111,11.846 L176.285111,13.414 C175.865109,13.5353339 175.263115,13.7826648 174.479111,14.156 L174.115111,14.324 L173.023111,19 L171.511111,19 Z M176.152889,19 L177.762889,12 L179.274889,12 L177.664889,19 L176.152889,19 Z M177.986889,10.964 L178.364889,9.326 L179.904889,9.326 L179.526889,10.964 L177.986889,10.964 Z M184.308667,11.846 C184.878003,11.846 185.300332,12.0163316 185.575667,12.357 C185.851001,12.6976684 185.988667,13.1129976 185.988667,13.603 C185.988667,14.0930025 185.890668,14.7299961 185.694667,15.514 L184.896667,19 L183.384667,19 L184.168667,15.626 C184.336667,14.8419961 184.420667,14.3100014 184.420667,14.03 C184.420667,13.7499986 184.367001,13.5353341 184.259667,13.386 C184.152333,13.2366659 183.979668,13.162 183.741667,13.162 C183.503665,13.162 183.244668,13.2576657 182.964667,13.449 C182.684665,13.6403343 182.451334,13.833999 182.264667,14.03 L181.998667,14.324 L180.920667,19 L179.408667,19 L181.018667,12 L182.474667,12 L182.320667,12.924 C182.395334,12.8399996 182.493333,12.7396672 182.614667,12.623 C182.736001,12.5063327 182.971665,12.3476677 183.321667,12.147 C183.671668,11.9463323 184.000665,11.846 184.308667,11.846 L184.308667,11.846 Z M191.218444,21.492 C190.602441,21.9960025 189.809116,22.248 188.838444,22.248 C186.887768,22.248 185.912444,21.6226729 185.912444,20.372 C185.912444,19.9146644 186.075776,19.5320015 186.402444,19.224 C186.729113,18.9159985 187.153775,18.6313346 187.676444,18.37 C187.508444,18.2019992 187.424444,17.9990012 187.424444,17.761 C187.424444,17.5229988 187.49211,17.2920011 187.627444,17.068 C187.762778,16.8439989 187.895777,16.6666673 188.026444,16.536 L188.236444,16.34 C187.592441,15.9946649 187.270444,15.4300039 187.270444,14.646 C187.270444,13.8619961 187.531775,13.199336 188.054444,12.658 C188.577114,12.116664 189.27244,11.846 190.140444,11.846 C190.51378,11.846 190.947775,11.9066661 191.442444,12.028 L191.680444,12.084 L193.738444,12 L193.444444,13.246 L192.450444,13.246 C192.534445,13.4606677 192.576444,13.7359983 192.576444,14.072 C192.576444,14.7813369 192.30578,15.4019973 191.764444,15.934 C191.223108,16.4660027 190.513782,16.732 189.636444,16.732 L189.104444,16.662 C188.89911,16.932668 188.796444,17.1473325 188.796444,17.306 C188.796444,17.4646675 188.882777,17.574333 189.055444,17.635 C189.228112,17.695667 189.608441,17.7656663 190.196444,17.845 C190.784447,17.9243337 191.255776,18.092332 191.610444,18.349 C191.965113,18.6056679 192.142444,19.0093306 192.142444,19.56 C192.142444,20.3440039 191.834448,20.9879975 191.218444,21.492 L191.218444,21.492 Z M187.641444,19.35 C187.42211,19.5740011 187.312444,19.8119987 187.312444,20.064 C187.312444,20.3160013 187.426777,20.5306658 187.655444,20.708 C187.884112,20.8853342 188.255109,20.974 188.768444,20.974 C189.28178,20.974 189.732109,20.8713344 190.119444,20.666 C190.50678,20.4606656 190.700444,20.1480021 190.700444,19.728 C190.700444,19.5039989 190.616445,19.3476671 190.448444,19.259 C190.280444,19.1703329 189.93278,19.0863337 189.405444,19.007 C188.878108,18.9276663 188.530445,18.8646669 188.362444,18.818 C188.10111,18.9486673 187.860779,19.1259989 187.641444,19.35 L187.641444,19.35 Z M189.748444,15.486 C190.17778,15.486 190.52311,15.3366682 190.784444,15.038 C191.045779,14.7393318 191.176444,14.4080018 191.176444,14.044 C191.176444,13.4093302 190.807781,13.092 190.070444,13.092 C189.659776,13.092 189.326112,13.2389985 189.069444,13.533 C188.812776,13.8270015 188.684444,14.1653314 188.684444,14.548 C188.684444,15.1733365 189.039108,15.486 189.748444,15.486 L189.748444,15.486 Z M193.774222,15.556 L195.174222,9.2 L196.770222,9.2 L195.188222,15.556 L193.774222,15.556 Z M192.948222,19 L193.382222,17.11 L194.922222,17.11 L194.488222,19 L192.948222,19 Z" id="We’re-hiring!" fill="#313434"></path>
                            </g>
                        </g>
                    </g>
                </g>
            </g>
        </g>
    </g>
</svg>